<svg width="39.516418" height="39.516602" viewBox="0 0 39.5164 39.5166" fill="none" xmlns="http://www.w3.org/2000/svg" xmlns:xlink="http://www.w3.org/1999/xlink">
	<desc>
			Created with Pixso.
	</desc>
	<defs/>
	<path id="Path 394" d="M37.3351 0L2.17944 0C0.975586 0.000488281 -0.000305176 0.977051 0 2.18115L0 37.3372C0.000610352 38.5408 0.977112 39.5168 2.18127 39.5166L37.3351 39.5166C38.5396 39.5168 39.5161 38.5405 39.5164 37.3362L39.5164 2.17944C39.5158 0.975586 38.5392 -0.000244141 37.3351 0Z" fill-rule="nonzero" fill="#2699FB"/>
	<path id="Path 395" d="M27.2833 39.5166L27.2833 24.2349L32.435 24.2349L33.2068 18.2534L27.2833 18.2534L27.2833 14.4436C27.2833 12.7158 27.7629 11.5386 30.2405 11.5386L33.3806 11.5386L33.3806 6.20312C32.8342 6.13062 30.9598 5.96802 28.7789 5.96802C24.2253 5.96802 21.1088 8.74658 21.1088 13.8513L21.1088 18.2534L15.9763 18.2534L15.9763 24.2349L21.1088 24.2349L21.1088 39.5166L27.2833 39.5166Z" fill-rule="nonzero" fill="#FFFFFF"/>
</svg>
