<svg width="237.000000" height="79.000000" viewBox="0 0 237 79" fill="none" xmlns="http://www.w3.org/2000/svg" xmlns:xlink="http://www.w3.org/1999/xlink">
	<desc>
			Created with Pixso.
	</desc>
	<defs>
		<filter id="filter_1_319_dd" x="0.000000" y="0.000000" width="237.000000" height="79.000000" filterUnits="userSpaceOnUse" color-interpolation-filters="sRGB">
			<feFlood flood-opacity="0" result="BackgroundImageFix"/>
			<feColorMatrix in="SourceAlpha" type="matrix" values="0 0 0 0 0 0 0 0 0 0 0 0 0 0 0 0 0 0 127 0" result="hardAlpha"/>
			<feOffset dx="0" dy="4"/>
			<feGaussianBlur stdDeviation="1.33333"/>
			<feComposite in2="hardAlpha" operator="out" k2="-1" k3="1"/>
			<feColorMatrix type="matrix" values="0 0 0 0 0 0 0 0 0 0 0 0 0 0 0 0 0 0 0.25 0"/>
			<feBlend mode="normal" in2="BackgroundImageFix" result="effect_dropShadow_1"/>
			<feBlend mode="normal" in="SourceGraphic" in2="effect_dropShadow_1" result="shape"/>
		</filter>
	</defs>
	<g filter="url(#filter_1_319_dd)">
		<path id="Path 209" d="M146.474 41.1818L146.474 40.4267C146.474 40.4267 146.474 39.5453 147.529 39.4983L155.329 39.4983L155.329 36.2164L147.508 36.2341C147.508 36.2341 146.6 36.2341 146.6 35.3526L146.6 34.0805C146.586 33.8347 146.68 33.595 146.859 33.4252C147.037 33.2554 147.281 33.1727 147.526 33.199C148.049 33.199 156.222 33.199 156.222 33.199L156.31 29.7409L144.632 29.7409C144.073 29.7409 142.387 30.0347 142.387 32.1472L142.387 43.9789C142.387 43.9789 142.093 45.965 144.808 45.965L156.334 45.965L156.334 42.122L147.44 42.122C147.44 42.122 146.474 42.0662 146.474 41.1818ZM137.812 29.735L135.333 29.735C134.666 29.7556 134.216 30.5636 134.216 30.5636L129.644 37.9088C129.644 37.9088 129.377 38.3201 129.171 38.3201C128.966 38.3201 128.687 37.9 128.687 37.9C128.687 37.9 124.215 31.0483 123.909 30.5547C123.38 29.6733 122.802 29.7233 122.802 29.7233L120.765 29.7233C118.806 29.7233 118.803 31.9709 118.803 31.9709L118.715 45.9356L123.225 45.8945L123.225 35.8786C123.225 35.8786 128.334 44.969 128.722 45.6477C128.925 45.9415 129.045 46.0561 129.18 46.0561C129.315 46.0561 129.474 45.968 129.668 45.6477C129.668 45.6242 135.206 35.4731 135.206 35.4731L135.191 45.9973L139.555 45.9973C139.555 45.9973 139.593 34.7121 139.593 32.2588C139.593 29.8055 137.812 29.735 137.812 29.735ZM98.0188 37.33L92.6068 37.33C92.6068 37.33 92.6245 37.5063 92.6597 37.7119C93.1711 37.8139 93.582 38.1942 93.7233 38.6962C93.7439 38.8842 93.7586 39.6658 93.7586 41.0026C93.7586 42.075 93.1709 42.1455 93.1709 42.1455L89.7099 42.1455C87.6855 42.1455 87.4799 40.4238 87.4799 40.4238L87.4799 35.6288C87.4799 33.3636 89.6541 33.3518 89.6541 33.3518L97.9953 33.3518L97.9953 29.738C97.9953 29.738 92.3277 29.688 88.1351 29.688C83.9424 29.688 83.0698 32.7142 83.0698 33.913L83.0698 39.8655C83.0698 45.9503 87.5651 45.9797 87.5651 45.9797L95.6683 45.9797C98.1892 45.9797 98.3538 43.7144 98.3538 43.7144C98.3538 43.7144 98.3244 38.7197 98.3538 38.0557C98.3831 37.3917 98.0188 37.33 98.0188 37.33ZM109.366 29.6909L106.754 29.6909C106.144 29.667 105.59 30.0418 105.385 30.6164L99.5231 46.0326L104.224 45.9856L105.338 42.5392C105.338 42.5392 111.181 42.5627 111.082 42.5568C111.669 44.3461 112.133 45.9533 112.133 45.9533L117.087 45.9533C117.087 45.9533 111.24 31.2511 110.788 30.4225C110.335 29.594 109.366 29.6909 109.366 29.6909ZM106.372 39.1839L108.155 34.0305L109.853 39.1898L106.372 39.1839ZM169.673 42.1808L164.337 42.1808C163.412 42.1808 163.377 41.22 163.377 41.22L163.377 29.782L159.019 29.782C159.019 29.782 159.084 42.3365 159.084 44.2697C159.084 46.1178 160.53 45.965 160.776 45.965L171.906 45.965C170.481 45.965 169.673 42.1808 169.673 42.1808ZM183.297 29.782L176.304 29.782C175.423 29.782 171.841 30.4637 171.841 34.3008L171.841 41.1025C171.841 41.1025 172.253 46.0443 175.79 46.0443C181.569 46.0443 183.723 45.9356 183.723 45.9356C183.723 45.9356 187.924 45.2716 187.924 40.8939L187.924 34.3596C187.924 34.3596 187.504 29.782 183.297 29.782ZM181.217 42.2983C180.13 42.2983 177.814 42.2718 177.814 42.2718C177.814 42.2718 176.134 42.4041 176.134 40.1799C176.134 37.6473 176.254 34.9913 176.254 34.9913C176.254 34.9913 176.14 33.2901 178.12 33.2901L181.795 33.2901C182.313 33.3064 182.801 33.5327 183.148 33.9168C183.495 34.301 183.671 34.8098 183.635 35.3262C183.635 37.3212 183.502 40.2064 183.502 40.2064C183.502 40.2064 183.852 42.2983 181.217 42.2983ZM213.242 29.7527L192.96 29.7527C190.865 29.7527 190.657 31.1071 190.657 31.7153L190.657 45.8974L194.861 45.9562C194.861 45.9562 194.846 41.0349 194.846 40.3562C194.846 39.4748 195.995 39.4542 195.995 39.4542L199.756 39.4542L199.756 36.4809L195.936 36.4809C194.761 36.4809 194.761 35.7934 194.761 35.7934L194.761 33.3224L205.259 33.3224L205.259 45.9562L209.431 45.9562L209.431 33.3812C209.431 33.3812 213.251 33.4811 216.662 33.3812C216.098 31.2628 214.535 29.7527 213.242 29.7527Z" fill-rule="nonzero" fill="#141414"/>
		<path id="Path 210" d="M58.9892 54.6089C59.817 54.6222 60.6448 54.5899 61.469 54.5119C64.7009 54.0506 66.7311 52.6932 68.6644 49.1352C69.6545 47.1579 69.6016 44.0229 69.6016 44.0229L69.631 38.4993C69.631 38.4993 69.5634 35.5613 69.2255 34.0922C68.8877 32.6232 68.3059 31.4186 66.9426 29.9319C66.4108 29.3638 65.7756 28.9021 65.0711 28.5715C64.1882 28.1468 63.2494 27.85 62.2828 27.6901C60.708 27.4139 56.2274 27.4727 56.2274 27.4727L44.8042 27.3963L36.8331 27.552C35.7697 27.5442 34.7066 27.5923 33.6482 27.696C32.7574 27.7496 31.9089 28.0944 31.2331 28.6773C30.5632 29.153 30.0645 29.832 29.8111 30.6135C29.4938 31.7212 29.5614 34.3361 29.5614 34.3361C29.5614 34.3361 29.6906 38.7931 29.7112 39.4366C29.7112 39.8391 29.8728 39.9625 29.9815 39.9978C30.0902 40.033 32.7551 40.3386 32.7609 40.3503C33.1755 39.3973 34.094 38.7052 35.132 38.6521C36.9213 38.5464 56.6388 38.2467 58.2518 38.2114C58.7808 38.1694 59.3124 38.2488 59.806 38.4435C60.0449 38.5724 60.2317 38.7801 60.3349 39.0311C60.5141 39.416 60.5758 40.7176 60.5758 40.7176C60.5758 40.7176 60.5494 42.4805 60.5494 42.9829C60.5494 43.6557 60.2056 45.5948 57.8522 45.5948C56.6241 45.636 33.9538 45.395 33.9538 45.395C33.0242 45.4069 32.1031 45.2175 31.2537 44.8397C28.9943 43.6469 28.2715 41.9222 28.2304 38.2143C28.2304 35.6582 28.248 29.6351 28.248 29.6351C28.248 29.6351 28.1305 26.8616 30.052 25.0547C31.5211 23.6503 34.6501 23.7208 35.0879 23.7384L35.1995 23.7384C35.9634 23.7384 43.626 23.7384 46.3643 23.662C49.2407 23.5886 63.8136 24.0087 64.5452 24.044C65.306 24.0616 66.0532 24.2504 66.7311 24.5963C67.476 25.0014 68.1491 25.5265 68.7231 26.1506C69.7528 27.3817 70.4542 28.8533 70.7622 30.4284C71.0207 32.1208 71.3498 38.185 71.3498 38.185C71.3498 38.185 71.5026 44.5048 70.9149 46.8024C70.5154 48.3684 70.0335 50.6395 67.9769 52.5963C67.6037 52.9782 67.2365 53.3602 67.2365 53.3602C67.21 53.4219 67.1483 53.4924 67.2365 53.701C67.4917 54.1009 67.8671 54.4095 68.3089 54.5824C68.6614 54.7499 69.3195 54.4679 69.9718 54.0536C72.0285 52.6727 73.1332 51.5944 74.1792 49.4202C75.5395 46.5556 75.6129 42.6421 75.6129 42.1249C75.6129 41.6078 75.5601 32.4293 75.5601 32.4293C75.5601 32.4293 75.6776 28.7126 75.2663 26.3327C74.8655 24.2103 74.0281 22.1942 72.8071 20.4125C71.9841 19.2117 70.8593 18.2489 69.5458 17.6213C68.9922 17.3407 68.4176 17.104 67.827 16.9132C65.1827 16.0318 61.9685 16.0318 59.3066 15.9495C56.6447 15.8673 45.3154 15.7909 45.3154 15.7909C45.3154 15.7909 37.2827 15.8408 33.9626 16.0083C28.7093 16.2668 27.3872 16.3667 25.0073 17.3745C22.6275 18.3823 20.9998 20.7739 20.4739 22.7306C19.9479 24.6874 20.1213 27.9545 20.1213 27.9545L20.23 41.7401C20.1903 43.1999 20.2522 44.6607 20.4151 46.1119C20.7912 48.9854 21.2965 50.2635 21.796 51.0303C22.4994 52.1524 23.5002 53.0576 24.6871 53.6452C25.8623 54.2064 29.4262 54.6383 31.1332 54.6441C33.9891 54.7587 41.8426 54.744 43.9022 54.7499L58.9892 54.6089Z" fill-rule="nonzero" fill="#141414"/>
	</g>
</svg>
