<svg width="39.889893" height="39.897949" viewBox="0 0 39.8899 39.8979" fill="none" xmlns="http://www.w3.org/2000/svg" xmlns:xlink="http://www.w3.org/1999/xlink">
	<desc>
			Created with Pixso.
	</desc>
	<defs/>
	<path id="Path 396" d="M2.60199 2.77002C-0.523682 6.0166 0.116028 9.46558 0.116028 19.9431C0.116028 28.6438 -1.40204 37.3665 6.54309 39.4197C9.02411 40.0579 31.0066 40.0579 33.4842 39.4165C36.7922 38.563 39.4837 35.8796 39.8516 31.2012C39.903 30.5481 39.903 9.34961 39.85 8.68335C39.4589 3.69971 36.3912 0.827637 32.349 0.24585C31.4226 0.111572 31.2369 0.0717773 26.4838 0.0634766C9.62396 0.0717773 5.92822 -0.678955 2.60199 2.77002Z" fill-rule="nonzero" fill="#2699FB"/>
	<path id="Path 397" d="M20.0003 5.26587C13.9827 5.26587 8.26831 4.73071 6.08563 10.3323C5.18402 12.646 5.315 15.6506 5.315 19.9529C5.315 23.7283 5.19397 27.2766 6.08563 29.572C8.26331 35.177 14.024 34.6401 19.9971 34.6401C25.7595 34.6401 31.7009 35.24 33.9102 29.572C34.8134 27.2351 34.6808 24.2754 34.6808 19.9529C34.6808 14.2153 34.9973 10.5112 32.2147 7.73022C29.3973 4.91284 25.5938 5.26587 20.0003 5.26587ZM18.6844 7.9126C31.2369 7.89282 32.8346 6.49731 31.9528 25.8828C31.6396 32.7393 26.4191 31.9868 20.0021 31.9868C8.30139 31.9868 7.96503 31.6519 7.96503 19.9463C7.96503 8.10474 8.89307 7.92261 18.6844 7.9126ZM27.8394 10.3506C26.8666 10.3506 26.0777 11.1394 26.0777 12.1123C26.0777 13.0852 26.8666 13.874 27.8394 13.874C28.8123 13.874 29.6011 13.0852 29.6011 12.1123C29.6011 11.1394 28.8123 10.3506 27.8394 10.3506ZM20.0003 12.4106C15.8356 12.4106 12.4597 15.7881 12.4597 19.9529C12.4597 24.1179 15.8356 27.4937 20.0003 27.4937C24.1652 27.4937 27.5395 24.1179 27.5395 19.9529C27.5395 15.7881 24.1652 12.4106 20.0003 12.4106ZM20.0003 15.0574C26.4722 15.0574 26.4805 24.8486 20.0003 24.8486C13.5302 24.8486 13.5203 15.0574 20.0003 15.0574Z" fill-rule="nonzero" fill="#FFFFFF"/>
</svg>
