<svg width="35.683990" height="35.601074" viewBox="0 0 35.684 35.6011" fill="none" xmlns="http://www.w3.org/2000/svg" xmlns:xlink="http://www.w3.org/1999/xlink">
	<desc>
			Created with Pixso.
	</desc>
	<defs/>
	<path id="Path 320" d="M4.30942 0C6.65137 0.00195312 8.58289 1.93604 8.57785 4.29004C8.57224 6.75439 6.52704 8.61182 4.28058 8.55811C2.00198 8.60449 -0.000427246 6.70117 0 4.27344C0 1.91895 1.93906 -0.00195312 4.30942 0Z" fill-rule="nonzero" fill="#2699FB"/>
	<path id="Path 321" d="M6.79755 35.5957L1.77982 35.5957C1.1286 35.5957 0.600708 35.0679 0.600708 34.4165L0.600708 13.0107C0.600708 12.3594 1.1286 11.8315 1.77982 11.8315L6.79755 11.8315C7.44876 11.8315 7.97668 12.3594 7.97668 13.0107L7.97668 34.4165C7.97656 35.0679 7.44876 35.5957 6.79755 35.5957Z" fill-rule="nonzero" fill="#2699FB"/>
	<path id="Path 322" d="M35.684 19.3501C35.684 14.8623 32.0461 11.2246 27.5584 11.2246L26.2715 11.2246C23.8163 11.2246 21.6472 12.4497 20.3426 14.3218C20.2003 14.5259 20.0686 14.7383 19.9476 14.957L19.8804 12.3208C19.8804 12.0508 19.6613 11.8315 19.3908 11.8315L13.1306 11.8315C12.8603 11.8315 12.6411 12.0503 12.6411 12.3208L12.6411 35.1064C12.6411 35.3765 12.8601 35.5957 13.1304 35.5957L19.527 35.5972C19.7975 35.5977 20.0167 35.3784 20.0167 35.1079L20.0167 21.9443C20.0167 19.6689 21.8316 17.7793 24.1069 17.7539C25.2684 17.7407 26.3214 18.2061 27.0803 18.9653C27.8293 19.7139 28.2923 20.7485 28.2923 21.8916L28.2923 35.1094C28.2923 35.3799 28.5114 35.5991 28.7816 35.5991L35.1941 35.6006C35.4645 35.6006 35.6837 35.3813 35.6837 35.1113L35.684 19.3501Z" fill-rule="nonzero" fill="#2699FB"/>
</svg>
