<svg width="30.000000" height="30.000000" viewBox="0 0 30 30" fill="none" xmlns="http://www.w3.org/2000/svg" xmlns:xlink="http://www.w3.org/1999/xlink">
	<desc>
			Created with Pixso.
	</desc>
	<defs/>
	<rect id="Rectangle 1824" width="30.000000" height="30.000000" fill="#2699FB"/>
	<path id="Path 320" d="M7.31799 4.48047C8.66907 4.48145 9.78345 5.59766 9.78052 6.95557C9.77734 8.37744 8.59741 9.44873 7.30139 9.41797C5.98682 9.44434 4.83154 8.34668 4.83179 6.9458C4.83179 5.5874 5.95044 4.47949 7.31799 4.48047Z" fill-rule="nonzero" fill="#C4E4FF"/>
	<path id="Path 321" d="M8.75342 25.0166L5.85864 25.0166C5.48291 25.0166 5.17834 24.7119 5.17834 24.3364L5.17834 11.9868C5.17834 11.6113 5.48291 11.3066 5.85864 11.3066L8.75342 11.3066C9.12915 11.3066 9.43372 11.6113 9.43372 11.9868L9.43372 24.3364C9.43359 24.7119 9.12915 25.0166 8.75342 25.0166Z" fill-rule="nonzero" fill="#C4E4FF"/>
	<path id="Path 322" d="M25.4187 15.6445C25.4187 13.0552 23.3199 10.9565 20.731 10.9565L19.9884 10.9565C18.572 10.9565 17.3206 11.6631 16.5679 12.7437C16.4858 12.8613 16.4098 12.9834 16.3401 13.1099L16.3013 11.5889C16.3013 11.4331 16.1748 11.3066 16.0188 11.3066L12.4072 11.3066C12.2512 11.3066 12.1248 11.4331 12.1248 11.5889L12.1248 24.7344C12.1248 24.8901 12.2511 25.0166 12.4071 25.0171L16.0974 25.0176C16.2534 25.0181 16.3799 24.8911 16.3799 24.7354L16.3799 17.1411C16.3799 15.8281 17.427 14.7383 18.7396 14.7231C19.4098 14.7158 20.0172 14.9844 20.4551 15.4224C20.8872 15.854 21.1543 16.4512 21.1543 17.1104L21.1543 24.7363C21.1543 24.8921 21.2808 25.0186 21.4366 25.0186L25.1361 25.0195C25.2921 25.0195 25.4186 24.8931 25.4186 24.7373L25.4187 15.6445Z" fill-rule="nonzero" fill="#C4E4FF"/>
</svg>
