<svg width="52.000000" height="52.000000" viewBox="0 0 52 52" fill="none" xmlns="http://www.w3.org/2000/svg" xmlns:xlink="http://www.w3.org/1999/xlink">
	<desc>
			Created with Pixso.
	</desc>
	<defs/>
	<rect id="Rectangle 1824" width="52.000000" height="52.000000" fill="#FFFFFF"/>
	<path id="Path 320" d="M11.9751 7.91016C14.317 7.91211 16.2485 9.84619 16.2435 12.2002C16.2379 14.6646 14.1927 16.522 11.9462 16.4683C9.66763 16.5146 7.66522 14.6113 7.66565 12.1836C7.66565 9.8291 9.60471 7.9082 11.9751 7.91016Z" fill-rule="nonzero" fill="#2699FB"/>
	<path id="Path 321" d="M14.4632 43.5059L9.44547 43.5059C8.79425 43.5059 8.26636 42.978 8.26636 42.3267L8.26636 20.9209C8.26636 20.2695 8.79425 19.7417 9.44547 19.7417L14.4632 19.7417C15.1144 19.7417 15.6423 20.2695 15.6423 20.9209L15.6423 42.3267C15.6422 42.978 15.1144 43.5059 14.4632 43.5059Z" fill-rule="nonzero" fill="#2699FB"/>
	<path id="Path 322" d="M43.3496 27.2603C43.3496 22.7725 39.7117 19.1348 35.2241 19.1348L33.9371 19.1348C31.4819 19.1348 29.3129 20.3599 28.0082 22.2319C27.8659 22.436 27.7342 22.6484 27.6132 22.8672L27.5461 20.231C27.5461 19.9609 27.3269 19.7417 27.0565 19.7417L20.7963 19.7417C20.526 19.7417 20.3068 19.9604 20.3068 20.231L20.3068 43.0166C20.3068 43.2866 20.5258 43.5059 20.7961 43.5059L27.1927 43.5073C27.4631 43.5078 27.6824 43.2886 27.6824 43.0181L27.6824 29.8545C27.6824 27.5791 29.4972 25.6895 31.7726 25.6641C32.9341 25.6509 33.987 26.1162 34.746 26.8755C35.4949 27.624 35.958 28.6587 35.958 29.8018L35.958 43.0195C35.958 43.29 36.1771 43.5093 36.4473 43.5093L42.8597 43.5107C43.1302 43.5107 43.3494 43.2915 43.3494 43.0215L43.3496 27.2603Z" fill-rule="nonzero" fill="#2699FB"/>
</svg>
