<svg width="17.119629" height="13.040283" viewBox="0 0 17.1196 13.0403" fill="none" xmlns="http://www.w3.org/2000/svg" xmlns:xlink="http://www.w3.org/1999/xlink">
	<desc>
			Created with Pixso.
	</desc>
	<defs/>
	<path id="Path 376" d="M15.6149 0L1.50464 0C0.676025 0 0 0.675293 0 1.50464L0 11.5356C0 12.3622 0.672974 13.0403 1.50464 13.0403L15.6149 13.0403C16.4415 13.0403 17.1196 12.3672 17.1196 11.5356L17.1196 1.50464C17.1196 0.678101 16.4465 0 15.6149 0ZM15.4071 1.00311L8.59167 7.8186L1.71729 1.00311L15.4071 1.00311ZM1.00305 11.3279L1.00305 1.70758L5.83398 6.49701L1.00305 11.3279ZM1.7124 12.0372L6.54639 7.20325L8.24011 8.88251C8.43616 9.0769 8.75256 9.07629 8.94788 8.88098L10.5994 7.22943L15.4072 12.0372L1.7124 12.0372ZM16.1165 11.3279L11.3087 6.52014L16.1165 1.71234L16.1165 11.3279Z" fill-rule="nonzero" fill="#2699FB"/>
</svg>
