<svg width="239.356934" height="122.672852" viewBox="0 0 239.357 122.673" fill="none" xmlns="http://www.w3.org/2000/svg" xmlns:xlink="http://www.w3.org/1999/xlink">
	<desc>
			Created with Pixso.
	</desc>
	<defs/>
	<g opacity="0.390000">
		<path id="Polygon 2" d="M105.387 7.67285L199.887 117.673L10.8872 117.673L105.387 7.67285Z" fill-rule="evenodd" fill="#2699FB"/>
		<path id="Polygon 2" d="M0 122.673L210.774 122.673L105.387 0L0 122.673ZM195.592 112.673L199.887 117.673L10.8872 117.673L15.1827 112.673L102.091 11.5093L105.387 7.67285L108.683 11.5093L195.592 112.673Z" fill-rule="evenodd" fill="#BCE0FD"/>
		<path id="Polygon 1" d="M179.887 55.6729L230.887 117.673L128.887 117.673L179.887 55.6729Z" fill-rule="evenodd" fill="#2699FB"/>
		<path id="Polygon 1" d="M120.417 121.673L239.357 121.673L179.887 49.3762L120.417 121.673ZM227.597 113.673L230.887 117.673L128.887 117.673L177.297 58.821L179.887 55.6729L182.477 58.821L227.597 113.673Z" fill-rule="evenodd" fill="#BCE0FD"/>
	</g>
</svg>
