<svg width="350.991394" height="187.885437" viewBox="0 0 350.991 187.885" fill="none" xmlns="http://www.w3.org/2000/svg" xmlns:xlink="http://www.w3.org/1999/xlink">
	<desc>
			Created with Pixso.
	</desc>
	<defs/>
	<g opacity="0.300000">
		<path id="Polygon 2" d="M154.066 7.88544L297.566 182.885L10.566 182.885L154.066 7.88544Z" fill-rule="evenodd" fill="#FFFFFF"/>
		<path id="Polygon 2" d="M0 187.885L308.132 187.885L154.066 0L0 187.885ZM293.466 177.885L297.566 182.885L10.566 182.885L14.666 177.885L150.833 11.8282L154.066 7.88544L157.299 11.8282L293.466 177.885Z" fill-rule="evenodd" fill="#BCE0FD"/>
		<path id="Polygon 1" d="M265.066 87.8854L342.566 182.885L187.566 182.885L265.066 87.8854Z" fill-rule="evenodd" fill="#FFFFFF"/>
		<path id="Polygon 1" d="M179.141 186.885L350.991 186.885L265.066 81.5576L179.141 186.885ZM339.303 178.885L342.566 182.885L187.566 182.885L190.829 178.885L265.066 87.8854L267.647 91.0493L339.303 178.885Z" fill-rule="evenodd" fill="#BCE0FD"/>
	</g>
</svg>
