<svg width="16.900024" height="16.899902" viewBox="0 0 16.9 16.8999" fill="none" xmlns="http://www.w3.org/2000/svg" xmlns:xlink="http://www.w3.org/1999/xlink">
	<desc>
			Created with Pixso.
	</desc>
	<defs/>
	<path id="Path 99" d="M16.9 15.4119L13.3925 11.9043C14.349 10.6289 14.8805 9.14087 14.8805 7.44019C14.8805 3.29492 11.5856 0 7.44031 0C3.29492 0 0 3.29492 0 7.44019C0 11.5854 3.29492 14.8806 7.44031 14.8806C9.14087 14.8806 10.6289 14.3491 11.9044 13.3923L15.412 16.8999L16.9 15.4119ZM2.12573 7.44019C2.12573 4.46411 4.46411 2.12573 7.44031 2.12573C10.4164 2.12573 12.7548 4.46411 12.7548 7.44019C12.7548 10.4163 10.4164 12.7546 7.44031 12.7546C4.46411 12.7546 2.12573 10.4163 2.12573 7.44019Z" fill-rule="nonzero" fill="#2699FB"/>
</svg>
