<svg width="16.075562" height="17.552185" viewBox="0 0 16.0756 17.5522" fill="none" xmlns="http://www.w3.org/2000/svg" xmlns:xlink="http://www.w3.org/1999/xlink">
	<desc>
			Created with Pixso.
	</desc>
	<defs/>
	<path id="Path 378" d="M14.3812 7.25549L14.3378 6.1911C14.3378 2.77185 11.566 0 8.14673 0C4.72742 0 1.95557 2.77185 1.95557 6.1911L1.95557 7.25549L1.69495 7.25549C0.739136 7.25549 0.000610352 8.10272 0.000610352 9.08026L0.000610352 11.7957C-0.0235596 12.7431 0.725098 13.5307 1.67261 13.5548L3.30249 13.5552C3.53015 13.5445 3.70605 13.3512 3.69531 13.1235L3.69348 7.77686C3.69348 7.51617 3.54138 7.25549 3.30249 7.25549L2.82458 7.25549L2.82458 6.19104C2.82458 3.25171 5.2074 0.868896 8.14673 0.868896C11.0861 0.868896 13.4689 3.25171 13.4689 6.19104L13.4689 7.25549L12.991 7.25549C12.752 7.25549 12.6 7.51611 12.6 7.77686L12.6 13.099C12.5757 13.3256 12.7397 13.5291 12.9664 13.5533L13.4906 13.5552C12.8387 14.4214 11.7725 14.994 10.6882 14.9889C10.4509 13.8251 9.31506 13.074 8.15137 13.3114C7.15613 13.5144 6.4386 14.386 6.43054 15.4016C6.4425 16.5929 7.41162 17.5522 8.60291 17.5522C9.19263 17.5426 9.75476 17.3007 10.1669 16.8788C10.4451 16.5939 10.6273 16.2294 10.6882 15.8361C12.0459 15.8412 13.3263 15.205 14.1422 14.1199L14.5551 13.5117C15.4891 13.4465 16.0756 12.86 16.0756 12.0128L16.0756 9.29742C16.0757 8.3634 15.3805 7.25549 14.3812 7.25549ZM2.82458 12.6863L1.69495 12.6863C1.22717 12.6749 0.857178 12.2865 0.868652 11.8187L0.869507 9.0802C0.869507 8.58063 1.21704 8.12439 1.69495 8.12439L2.82458 8.12439L2.82458 12.6863ZM9.53699 16.2706C9.29626 16.5316 8.95801 16.6811 8.60291 16.6833C7.89612 16.6721 7.32263 16.1082 7.29956 15.4017C7.29919 14.6938 7.8728 14.1198 8.58069 14.1195C9.28857 14.1192 9.86255 14.6927 9.86292 15.4006C9.88098 15.7231 9.7627 16.0395 9.53699 16.2706ZM15.2067 12.0129C15.2067 12.5994 14.642 12.6863 14.3812 12.6863L13.4689 12.6863L13.4689 8.12445L14.3812 8.12445C14.8591 8.12445 15.2067 8.79785 15.2067 9.29749L15.2067 12.0129Z" fill-rule="nonzero" fill="#2699FB"/>
</svg>
