<svg width="30.000000" height="30.000000" viewBox="0 0 30 30" fill="none" xmlns="http://www.w3.org/2000/svg" xmlns:xlink="http://www.w3.org/1999/xlink">
	<desc>
			Created with Pixso.
	</desc>
	<defs/>
	<rect id="Rectangle 1825" width="30.000000" height="30.000000" fill="#2699FB"/>
	<path id="Path 323" d="M4.09131 21.8677C6.05457 23.1128 8.38354 23.8335 10.88 23.8335C17.8936 23.8335 23.5789 18.1475 23.5789 11.1343C23.5789 10.9595 23.5752 10.7856 23.5686 10.6123C23.8223 10.4126 25.3911 9.15479 25.7756 8.34668C25.7756 8.34668 24.5017 8.87598 23.2546 9.00098C23.3696 8.92383 24.9746 7.82666 25.1921 6.52393C25.1921 6.52393 24.291 7.00488 23.0293 7.42578C22.8203 7.49512 22.6016 7.56348 22.3762 7.62646C21.5627 6.75879 20.4067 6.2168 19.1235 6.2168C16.6619 6.2168 14.6672 8.21094 14.6672 10.6704C14.6672 11.0176 14.7073 11.3555 14.7827 11.6797C14.4388 11.6655 9.20056 11.3721 5.63696 7.05664C5.63696 7.05664 3.5072 9.96387 6.90613 12.9536C6.90613 12.9536 5.87292 12.9126 4.98145 12.3799C4.98145 12.3799 4.65405 15.9023 8.5033 16.8032C8.5033 16.8032 7.74585 17.0898 6.5376 16.8853C6.5376 16.8853 7.21326 19.7314 10.6332 19.9976C10.6332 19.9976 7.93018 22.4409 4.09131 21.8677Z" fill-rule="nonzero" fill="#C4E4FF"/>
</svg>
