<svg width="39.897888" height="39.897949" viewBox="0 0 39.8979 39.8979" fill="none" xmlns="http://www.w3.org/2000/svg" xmlns:xlink="http://www.w3.org/1999/xlink">
	<desc>
			Created with Pixso.
	</desc>
	<defs/>
	<ellipse id="Ellipse 1098" cx="19.948975" cy="19.948975" rx="19.948952" ry="19.949009" fill="#2699FB"/>
	<path id="Path 398" d="M32.1684 14.3367C31.3135 14.7158 30.3939 14.9722 29.4295 15.0867C30.4142 14.4966 31.1699 13.5632 31.5266 12.449C30.6052 12.9956 29.5842 13.3921 28.4985 13.606C27.6287 12.6794 26.3894 12.1006 25.0171 12.1006C22.3842 12.1006 20.2487 14.2361 20.2487 16.8689C20.2487 17.2427 20.2911 17.6064 20.3729 17.9558C16.41 17.7568 12.8962 15.8586 10.5442 12.9729C10.1338 13.677 9.89838 14.4966 9.89838 15.3704C9.89838 17.0244 10.7408 18.4844 12.0196 19.3394C11.2383 19.3149 10.5026 19.1003 9.85999 18.7422C9.85999 21.0527 11.504 23.0403 13.6849 23.478C13.2852 23.5874 12.8631 23.6455 12.4289 23.6455C12.121 23.6455 11.8226 23.616 11.5317 23.5605C12.1384 25.4543 13.899 26.8333 15.9861 26.8718C14.3538 28.1511 12.298 28.9131 10.0634 28.9131C9.67932 28.9131 9.29883 28.8906 8.92651 28.8462C11.0356 30.1997 13.5427 30.9888 16.2354 30.9888C25.0061 30.9888 29.8026 23.7229 29.8026 17.4211C29.8026 17.2146 29.7979 17.0088 29.7887 16.8047C30.7211 16.1326 31.5294 15.293 32.1684 14.3367Z" fill-rule="nonzero" fill="#FFFFFF"/>
</svg>
