<svg width="37.586365" height="30.535156" viewBox="0 0 37.5864 30.5352" fill="none" xmlns="http://www.w3.org/2000/svg" xmlns:xlink="http://www.w3.org/1999/xlink">
	<desc>
			Created with Pixso.
	</desc>
	<defs/>
	<path id="Path 323" d="M0 27.1279C3.40305 29.2861 7.43982 30.5352 11.7671 30.5352C23.9239 30.5352 33.7786 20.6797 33.7786 8.52393C33.7786 8.22021 33.7722 7.91895 33.7605 7.61865C34.2003 7.27246 36.9198 5.09277 37.5864 3.69141C37.5864 3.69141 35.3779 4.60938 33.2165 4.82568C33.4156 4.69238 36.1979 2.79102 36.5749 0.532227C36.5749 0.532227 35.0128 1.36621 32.8257 2.0957C32.4636 2.21582 32.0846 2.33398 31.6938 2.44385C30.284 0.938965 28.2801 0 26.0557 0C21.789 0 18.3317 3.45654 18.3317 7.71973C18.3317 8.32129 18.4009 8.90674 18.5319 9.46924C17.9356 9.44482 8.85599 8.93555 2.67914 1.45557C2.67914 1.45557 -1.01251 6.49512 4.87903 11.6777C4.87903 11.6777 3.0881 11.606 1.54297 10.6831C1.54297 10.6831 0.975464 16.7886 7.64749 18.3496C7.64749 18.3496 6.33463 18.8467 4.24017 18.4922C4.24017 18.4922 5.41144 23.4253 11.3392 23.8867C11.3392 23.8867 6.65396 28.1216 0 27.1279Z" fill-rule="nonzero" fill="#2699FB"/>
</svg>
