<svg width="52.000000" height="52.000000" viewBox="0 0 52 52" fill="none" xmlns="http://www.w3.org/2000/svg" xmlns:xlink="http://www.w3.org/1999/xlink">
	<desc>
			Created with Pixso.
	</desc>
	<defs/>
	<rect id="Rectangle 1825" width="52.000000" height="52.000000" fill="#FFFFFF"/>
	<path id="Path 323" d="M6.44897 38.0479C9.85202 40.2061 13.8888 41.4551 18.216 41.4551C30.3729 41.4551 40.2276 31.5996 40.2276 19.4438C40.2276 19.1401 40.2212 18.8389 40.2095 18.5386C40.6492 18.1924 43.3687 16.0127 44.0353 14.6113C44.0353 14.6113 41.8269 15.5293 39.6654 15.7456C39.8646 15.6123 42.6469 13.7109 43.0238 11.4521C43.0238 11.4521 41.4618 12.2861 39.2747 13.0156C38.9126 13.1357 38.5336 13.2539 38.1428 13.3638C36.733 11.8589 34.7291 10.9199 32.5047 10.9199C28.238 10.9199 24.7807 14.3765 24.7807 18.6396C24.7807 19.2412 24.8499 19.8267 24.9808 20.3892C24.3846 20.3647 15.305 19.8555 9.12811 12.3755C9.12811 12.3755 5.43646 17.415 11.328 22.5977C11.328 22.5977 9.53708 22.5259 7.99194 21.603C7.99194 21.603 7.42444 27.7085 14.0965 29.2695C14.0965 29.2695 12.7836 29.7666 10.6891 29.4121C10.6891 29.4121 11.8604 34.3452 17.7882 34.8066C17.7882 34.8066 13.1029 39.0415 6.44897 38.0479Z" fill-rule="nonzero" fill="#2699FB"/>
</svg>
