<svg width="24.864014" height="24.864258" viewBox="0 0 24.864 24.8643" fill="none" xmlns="http://www.w3.org/2000/svg" xmlns:xlink="http://www.w3.org/1999/xlink">
	<desc>
			Created with Pixso.
	</desc>
	<defs/>
	<path id="Path 4" d="M3.7296 3.72949C6.0088 1.24316 8.90961 0 12.432 0C15.9544 0 18.8552 1.24316 21.1344 3.72949C23.6208 6.00879 24.864 8.90967 24.864 12.4321C24.864 15.9546 23.6208 18.855 21.1344 21.1343C18.8552 23.6206 15.9544 24.8643 12.432 24.8643C8.90961 24.8643 6.0088 23.6206 3.7296 21.1343C1.45041 18.6479 0 15.9546 0 12.4321C0 8.90967 1.24319 6.00879 3.7296 3.72949ZM14.0896 22.3774C14.9184 22.3774 15.9544 21.7559 17.1976 20.5127C18.0264 19.0625 18.648 17.6118 18.648 16.1616C18.648 15.1255 18.2336 14.2969 17.612 13.6753C16.7832 12.8462 15.9544 12.4321 14.9184 12.4321L12.8464 12.4321C12.2248 12.4321 11.6032 12.2246 10.9816 12.0176C10.5672 11.603 10.36 11.189 10.36 10.5674C10.36 10.1528 10.5672 9.9458 10.7744 9.73828C10.9816 9.53125 11.396 9.32422 11.6032 9.32422C11.8104 9.32422 12.432 9.53125 12.6392 9.9458C13.0536 10.1528 13.2608 10.3599 13.468 10.3599C13.6752 10.3599 14.0896 10.3599 14.2968 10.1528C14.504 9.9458 14.504 9.53125 14.504 9.32422C14.504 8.70264 14.0896 7.87354 13.468 7.25195C14.0896 6.00879 14.504 4.76562 14.504 3.31543C14.504 3.10791 14.2968 2.90088 14.0896 2.90088C13.468 2.69336 12.8464 2.48633 12.432 2.48633C10.1528 2.69336 8.49521 3.10791 7.0448 4.14404C5.80161 5.18018 5.18001 6.63037 5.18001 8.28809C5.18001 9.9458 5.80161 11.189 6.8376 12.2246C7.87361 13.2607 9.32401 13.8823 10.7744 13.8823C10.7744 14.0898 10.7744 14.5039 10.7744 14.7114C10.7744 15.54 10.9816 16.1616 11.6032 16.7832C12.0176 17.4048 12.6392 17.8193 13.468 18.0264L13.468 21.7559C13.468 21.9634 13.468 21.9634 13.6752 22.1704C13.8824 22.3774 13.8824 22.3774 14.0896 22.3774Z" fill-rule="nonzero" fill="#2699FB"/>
</svg>
