<svg width="30.453491" height="36.980469" viewBox="0 0 30.4535 36.9805" fill="none" xmlns="http://www.w3.org/2000/svg" xmlns:xlink="http://www.w3.org/1999/xlink">
	<desc>
			Created with Pixso.
	</desc>
	<defs/>
	<path id="Path 324" d="M19.1975 25.6562C19.1964 25.4658 19.1403 25.2671 19.0696 25.0889C18.9754 24.854 18.7734 24.7378 18.5198 24.7129C18.2225 24.6836 17.9847 24.8037 17.7692 24.9946C17.6828 25.0698 17.6436 25.1816 17.6436 25.1816L17.648 31.2373L17.648 31.3867C17.8231 31.5762 18.0867 31.8052 18.3482 31.8589C18.779 31.9478 19.0831 31.7681 19.1672 31.3687C19.1886 31.2686 19.2009 31.1655 19.2009 31.0635C19.2032 29.2603 19.2065 27.4585 19.1975 25.6562ZM19.1975 25.6562C19.1964 25.4658 19.1403 25.2671 19.0696 25.0889C18.9754 24.854 18.7734 24.7378 18.5198 24.7129C18.2225 24.6836 17.9847 24.8037 17.7692 24.9946C17.6828 25.0698 17.6436 25.1816 17.6436 25.1816L17.648 31.2373L17.648 31.3867C17.8231 31.5762 18.0867 31.8052 18.3482 31.8589C18.779 31.9478 19.0831 31.7681 19.1672 31.3687C19.1886 31.2686 19.2009 31.1655 19.2009 31.0635C19.2032 29.2603 19.2065 27.4585 19.1975 25.6562ZM25.9778 16.5244C18.8116 16.3706 11.6419 16.3706 4.47455 16.5244C1.98819 16.5771 0 18.6104 0 21.0977L0 32.291C0 34.7793 1.98819 36.8125 4.47455 36.8652C11.6419 37.019 18.8116 37.019 25.9778 36.8652C28.4653 36.8125 30.4535 34.7793 30.4535 32.291L30.4535 21.0977C30.4535 18.6104 28.4653 16.5771 25.9778 16.5244ZM6.57947 33.311L4.5127 33.311L4.5127 21.6274L2.37305 21.6274L2.37305 19.6729L8.7236 19.6729L8.7236 21.623L6.57947 21.623L6.57947 33.311ZM13.9757 28.4614L13.9757 33.312L12.1457 33.312L12.1457 32.2036C12.0795 32.2739 12.0425 32.312 12.0077 32.3516C11.6139 32.7959 11.1673 33.166 10.5974 33.3623C10.3191 33.458 10.033 33.4902 9.74014 33.4399C9.3407 33.3735 9.07254 33.1436 8.91098 32.7803C8.76065 32.4448 8.72247 32.0854 8.72137 31.7241C8.71686 30.3892 8.71912 23.3228 8.71912 23.2544L10.5446 23.2544C10.548 23.3159 10.5547 28.3887 10.5558 30.8628C10.5558 30.9971 10.557 31.1353 10.5839 31.2666C10.6512 31.5986 10.9059 31.7412 11.2257 31.6245C11.5937 31.4897 11.8742 31.2363 12.1098 30.9321C12.1446 30.8882 12.1446 30.8101 12.1446 30.7471L12.1446 23.2432L13.9757 23.2388C13.9757 23.2388 13.9757 26.7808 13.9757 28.4614ZM20.9378 32.3423C20.6932 33.0786 20.1546 33.4531 19.3804 33.4453C18.751 33.4399 18.2405 33.1895 17.8197 32.7329C17.7726 32.6826 17.6424 32.5444 17.6424 32.5444L17.6424 33.3096L15.8091 33.3096L15.8091 19.6719L17.6424 19.6719C17.6424 21.1235 17.6424 24.1606 17.6424 24.1606C17.6424 24.1606 17.7457 23.9546 17.8399 23.8477C18.1238 23.5303 18.4694 23.2847 18.8957 23.1768C19.5992 23.0005 20.4104 23.2183 20.7964 24.041C21.0242 24.5269 21.0881 25.0449 21.0881 25.5723C21.0915 27.4785 21.0915 29.3848 21.0892 31.291C21.0881 31.6479 21.0511 32.0005 20.9378 32.3423ZM27.7091 31.959C27.3915 32.8892 26.7352 33.4053 25.7725 33.5464C25.1756 33.6343 24.5843 33.6216 24.0244 33.3682C23.2581 33.0225 22.8239 32.3975 22.6376 31.6021C22.5512 31.2319 22.5086 30.8438 22.5041 30.4634C22.4895 28.9697 22.4962 27.4756 22.4996 25.9819C22.5007 25.2012 22.687 24.481 23.2222 23.8828C23.8326 23.1992 24.6135 22.9448 25.5055 23.002C25.7736 23.0186 26.0474 23.0625 26.3021 23.1465C27.1694 23.4316 27.6328 24.0811 27.8145 24.9429C27.8841 25.2754 27.9099 25.6196 27.9155 25.9595C27.9301 26.7563 27.9099 28.5122 27.9099 28.5122L24.3992 28.5122L24.3992 31.0288C24.3992 31.481 24.765 31.8467 25.2171 31.8467C25.6682 31.8467 26.0339 31.481 26.0339 31.0288L26.0339 29.7354L27.92 29.7354C27.92 29.7349 27.9481 31.2622 27.7091 31.959ZM26.0339 25.5386C26.0339 25.0879 25.6682 24.7207 25.2171 24.7207C24.765 24.7207 24.3992 25.0879 24.3992 25.5386L24.3992 26.9512L26.0339 26.9512L26.0339 25.5386ZM19.0696 25.0889C18.9754 24.8545 18.7734 24.7378 18.5198 24.7129C18.2225 24.6836 17.9847 24.8037 17.7692 24.9946C17.6828 25.0698 17.6436 25.1816 17.6436 25.1816L17.648 31.2373L17.648 31.3867C17.8231 31.5762 18.0867 31.8052 18.3482 31.8589C18.779 31.9478 19.0831 31.7681 19.1672 31.3687C19.1886 31.2686 19.2009 31.1655 19.2009 31.0635C19.2032 29.2603 19.2065 27.4585 19.1975 25.6562C19.1964 25.4658 19.1403 25.2671 19.0696 25.0889Z" fill-rule="nonzero" fill="#2699FB"/>
	<path id="Path 325" d="M23.756 3.58154L23.7554 13.707L21.8792 13.707L21.8815 12.6191C21.674 12.8237 21.4969 13.0142 21.3024 13.186C20.9575 13.4897 20.5668 13.7163 20.1098 13.8057C19.4082 13.9429 18.8106 13.7212 18.5869 12.9946C18.5124 12.7524 18.4674 12.4917 18.4655 12.2388L18.4655 3.58154L20.3276 3.58154L20.3276 11.3032C20.3276 11.4058 20.3358 11.5093 20.3537 11.6094C20.4103 11.9277 20.6454 12.0771 20.9519 11.9712C21.3254 11.8418 21.6104 11.583 21.8522 11.2783C21.8865 11.2349 21.8803 11.1538 21.8803 11.0898L21.8803 3.58154L23.756 3.58154Z" fill-rule="nonzero" fill="#2699FB"/>
	<path id="Path 326" d="M8.23779 5.34082C7.83047 3.62402 6.97717 0 6.97717 0L4.8421 0C4.8421 0 6.48248 5.44043 7.21606 7.8667C7.24243 7.9541 7.25452 8.04932 7.25452 8.1416L7.25378 13.7046L9.22253 13.7046L9.22174 8.1416C9.22174 8.04932 9.23389 7.9541 9.26025 7.8667C9.9938 5.44043 11.6342 0 11.6342 0L9.49911 0C9.49911 0 8.64496 3.62402 8.23779 5.34082Z" fill-rule="nonzero" fill="#2699FB"/>
	<path id="Path 327" d="M14.2038 3.32812C12.7201 3.32812 11.5173 4.53076 11.5173 6.01465L11.5173 11.2725C11.5173 12.7559 12.7201 13.959 14.2038 13.959C15.6875 13.959 16.8903 12.7559 16.8903 11.2725L16.8903 6.01465C16.8904 4.53076 15.6875 3.32812 14.2038 3.32812ZM14.9791 11.3784C14.9791 11.8057 14.6313 12.1538 14.2039 12.1538C13.7766 12.1538 13.4287 11.8057 13.4287 11.3784L13.4287 5.9082C13.4287 5.48096 13.7766 5.1333 14.2039 5.1333C14.6313 5.1333 14.9791 5.48096 14.9791 5.9082L14.9791 11.3784Z" fill-rule="nonzero" fill="#2699FB"/>
</svg>
