<svg width="52.000000" height="52.000000" viewBox="0 0 52 52" fill="none" xmlns="http://www.w3.org/2000/svg" xmlns:xlink="http://www.w3.org/1999/xlink">
	<desc>
			Created with Pixso.
	</desc>
	<defs/>
	<rect id="Rectangle 1826" width="52.000000" height="52.000000" fill="#FFFFFF"/>
	<path id="Path 324" d="M31.0952 32.8765C31.0941 32.686 31.038 32.4873 30.9673 32.3091C30.873 32.0742 30.6711 31.958 30.4175 31.9331C30.1201 31.9038 29.8823 32.0239 29.6669 32.2148C29.5804 32.29 29.5412 32.4019 29.5412 32.4019L29.5457 38.4575L29.5457 38.6069C29.7207 38.7964 29.9844 39.0254 30.2458 39.0791C30.6767 39.168 30.9807 38.9883 31.0649 38.5889C31.0862 38.4888 31.0986 38.3857 31.0986 38.2837C31.1008 36.4805 31.1042 34.6787 31.0952 32.8765ZM31.0952 32.8765C31.0941 32.686 31.038 32.4873 30.9673 32.3091C30.873 32.0742 30.6711 31.958 30.4175 31.9331C30.1201 31.9038 29.8823 32.0239 29.6669 32.2148C29.5804 32.29 29.5412 32.4019 29.5412 32.4019L29.5457 38.4575L29.5457 38.6069C29.7207 38.7964 29.9844 39.0254 30.2458 39.0791C30.6767 39.168 30.9807 38.9883 31.0649 38.5889C31.0862 38.4888 31.0986 38.3857 31.0986 38.2837C31.1008 36.4805 31.1042 34.6787 31.0952 32.8765ZM37.8755 23.7446C30.7092 23.5908 23.5396 23.5908 16.3722 23.7446C13.8858 23.7974 11.8976 25.8306 11.8976 28.3179L11.8976 39.5112C11.8976 41.9995 13.8858 44.0327 16.3722 44.0854C23.5396 44.2393 30.7092 44.2393 37.8755 44.0854C40.363 44.0327 42.3511 41.9995 42.3511 39.5112L42.3511 28.3179C42.3511 25.8306 40.363 23.7974 37.8755 23.7446ZM18.4771 40.5312L16.4103 40.5312L16.4103 28.8477L14.2707 28.8477L14.2707 26.8931L20.6212 26.8931L20.6212 28.8433L18.4771 28.8433L18.4771 40.5312ZM25.8734 35.6816L25.8734 40.5322L24.0434 40.5322L24.0434 39.4238C23.9772 39.4941 23.9401 39.5322 23.9054 39.5718C23.5115 40.0161 23.065 40.3862 22.495 40.5825C22.2167 40.6782 21.9306 40.7104 21.6378 40.6602C21.2383 40.5938 20.9702 40.3638 20.8086 40.0005C20.6583 39.665 20.6201 39.3057 20.619 38.9443C20.6145 37.6094 20.6168 30.543 20.6168 30.4746L22.4423 30.4746C22.4456 30.5361 22.4524 35.6089 22.4535 38.083C22.4535 38.2173 22.4546 38.3555 22.4815 38.4868C22.5488 38.8188 22.8035 38.9614 23.1233 38.8447C23.4913 38.71 23.7719 38.4565 24.0074 38.1523C24.0422 38.1084 24.0422 38.0303 24.0422 37.9673L24.0422 30.4634L25.8734 30.459C25.8734 30.459 25.8734 34.001 25.8734 35.6816ZM32.8354 39.5625C32.5908 40.2988 32.0523 40.6733 31.2781 40.6655C30.6486 40.6602 30.1381 40.4097 29.7173 39.9531C29.6702 39.9028 29.5401 39.7646 29.5401 39.7646L29.5401 40.5298L27.7067 40.5298L27.7067 26.8921L29.5401 26.8921C29.5401 28.3438 29.5401 31.3809 29.5401 31.3809C29.5401 31.3809 29.6433 31.1748 29.7375 31.0679C30.0214 30.7505 30.367 30.5049 30.7934 30.397C31.4969 30.2207 32.3081 30.4385 32.694 31.2612C32.9218 31.7471 32.9858 32.2651 32.9858 32.7925C32.9891 34.6987 32.9891 36.605 32.9869 38.5112C32.9858 38.8682 32.9487 39.2207 32.8354 39.5625ZM39.6068 39.1792C39.2892 40.1094 38.6328 40.6255 37.6701 40.7666C37.0732 40.8545 36.4819 40.8418 35.9221 40.5884C35.1557 40.2427 34.7215 39.6177 34.5352 38.8223C34.4489 38.4521 34.4062 38.064 34.4017 37.6836C34.3871 36.1899 34.3939 34.6958 34.3972 33.2021C34.3984 32.4214 34.5847 31.7012 35.1198 31.103C35.7302 30.4194 36.5111 30.165 37.4031 30.2222C37.6713 30.2388 37.945 30.2827 38.1997 30.3667C39.067 30.6519 39.5305 31.3013 39.7122 32.1631C39.7818 32.4956 39.8076 32.8398 39.8132 33.1797C39.8278 33.9766 39.8076 35.7324 39.8076 35.7324L36.2968 35.7324L36.2968 38.249C36.2968 38.7012 36.6626 39.0669 37.1147 39.0669C37.5658 39.0669 37.9316 38.7012 37.9316 38.249L37.9316 36.9556L39.8177 36.9556C39.8177 36.9551 39.8457 38.4824 39.6068 39.1792ZM37.9316 32.7588C37.9316 32.3081 37.5658 31.9409 37.1147 31.9409C36.6626 31.9409 36.2968 32.3081 36.2968 32.7588L36.2968 34.1714L37.9316 34.1714L37.9316 32.7588ZM30.9673 32.3091C30.873 32.0747 30.6711 31.958 30.4175 31.9331C30.1201 31.9038 29.8823 32.0239 29.6669 32.2148C29.5804 32.29 29.5412 32.4019 29.5412 32.4019L29.5457 38.4575L29.5457 38.6069C29.7207 38.7964 29.9844 39.0254 30.2458 39.0791C30.6767 39.168 30.9807 38.9883 31.0649 38.5889C31.0862 38.4888 31.0986 38.3857 31.0986 38.2837C31.1008 36.4805 31.1042 34.6787 31.0952 32.8765C31.0941 32.686 31.038 32.4873 30.9673 32.3091Z" fill-rule="nonzero" fill="#2699FB"/>
	<path id="Path 325" d="M35.6537 10.8018L35.6531 20.9272L33.7768 20.9272L33.7791 19.8394C33.5717 20.0439 33.3946 20.2344 33.2 20.4062C32.8551 20.71 32.4644 20.9365 32.0074 21.0259C31.3059 21.1631 30.7083 20.9414 30.4845 20.2148C30.41 19.9727 30.3651 19.7119 30.3632 19.459L30.3632 10.8018L32.2252 10.8018L32.2252 18.5234C32.2252 18.626 32.2334 18.7295 32.2513 18.8296C32.308 19.1479 32.5431 19.2974 32.8495 19.1914C33.223 19.062 33.508 18.8032 33.7498 18.4985C33.7841 18.4551 33.778 18.374 33.778 18.3101L33.778 10.8018L35.6537 10.8018Z" fill-rule="nonzero" fill="#2699FB"/>
	<path id="Path 326" d="M20.1354 12.561C19.7281 10.8442 18.8748 7.22021 18.8748 7.22021L16.7397 7.22021C16.7397 7.22021 18.3801 12.6606 19.1137 15.0869C19.1401 15.1743 19.1522 15.2695 19.1522 15.3618L19.1514 20.9248L21.1202 20.9248L21.1194 15.3618C21.1194 15.2695 21.1315 15.1743 21.1579 15.0869C21.8914 12.6606 23.5318 7.22021 23.5318 7.22021L21.3968 7.22021C21.3968 7.22021 20.5426 10.8442 20.1354 12.561Z" fill-rule="nonzero" fill="#2699FB"/>
	<path id="Path 327" d="M26.1014 10.5483C24.6177 10.5483 23.4149 11.751 23.4149 13.2349L23.4149 18.4927C23.4149 19.9761 24.6177 21.1792 26.1014 21.1792C27.5852 21.1792 28.788 19.9761 28.788 18.4927L28.788 13.2349C28.7881 11.751 27.5852 10.5483 26.1014 10.5483ZM26.8767 18.5986C26.8767 19.0259 26.5289 19.374 26.1016 19.374C25.6742 19.374 25.3264 19.0259 25.3264 18.5986L25.3264 13.1284C25.3264 12.7012 25.6742 12.3535 26.1016 12.3535C26.5289 12.3535 26.8767 12.7012 26.8767 13.1284L26.8767 18.5986Z" fill-rule="nonzero" fill="#2699FB"/>
</svg>
