<svg width="30.000000" height="30.000000" viewBox="0 0 30 30" fill="none" xmlns="http://www.w3.org/2000/svg" xmlns:xlink="http://www.w3.org/1999/xlink">
	<desc>
			Created with Pixso.
	</desc>
	<defs/>
	<rect id="Rectangle 1826" width="30.000000" height="30.000000" fill="#2699FB"/>
	<path id="Path 324" d="M17.541 18.8843C17.5405 18.7744 17.5081 18.6597 17.4673 18.5566C17.4128 18.4214 17.2964 18.354 17.1501 18.3398C16.9785 18.3232 16.8413 18.3926 16.717 18.5024C16.6672 18.5459 16.6445 18.6104 16.6445 18.6104L16.6472 22.104C16.6472 22.104 16.677 22.2305 16.6814 22.2354C16.7825 22.3447 16.9001 22.4316 17.051 22.4624C17.2996 22.5137 17.4751 22.4102 17.5237 22.1797C17.5359 22.1221 17.543 22.0625 17.543 22.0039C17.5444 20.9634 17.5461 19.9238 17.541 18.8843ZM17.541 18.8843C17.5405 18.7744 17.5081 18.6597 17.4673 18.5566C17.4128 18.4214 17.2964 18.354 17.1501 18.3398C16.9785 18.3232 16.8413 18.3926 16.717 18.5024C16.6672 18.5459 16.6445 18.6104 16.6445 18.6104L16.6472 22.104C16.6472 22.104 16.677 22.2305 16.6814 22.2354C16.7825 22.3447 16.9001 22.4316 17.051 22.4624C17.2996 22.5137 17.4751 22.4102 17.5237 22.1797C17.5359 22.1221 17.543 22.0625 17.543 22.0039C17.5444 20.9634 17.5461 19.9238 17.541 18.8843ZM21.4529 13.6157C17.3184 13.5273 13.1821 13.5273 9.04712 13.6157C7.61255 13.6465 6.46558 14.8193 6.46558 16.2544L6.46558 22.7119C6.46558 24.1475 7.61255 25.3203 9.04712 25.3511C13.1821 25.4395 17.3184 25.4395 21.4529 25.3511C22.8879 25.3203 24.0349 24.1475 24.0349 22.7119L24.0349 16.2544C24.0349 14.8193 22.8879 13.6465 21.4529 13.6157ZM10.2615 23.3003L9.06909 23.3003L9.06909 16.5601L7.83472 16.5601L7.83472 15.4321L11.4985 15.4321L11.4985 16.5571L10.2615 16.5571L10.2615 23.3003ZM14.5286 20.5024L14.5286 23.3008L13.4727 23.3008L13.4727 22.6611C13.2456 22.9175 12.9082 23.2168 12.5793 23.3301C12.4189 23.3853 12.2539 23.4038 12.085 23.3745C11.8545 23.3364 11.6997 23.2036 11.6064 22.9941C11.5198 22.8008 11.4978 22.5933 11.4971 22.3848C11.4946 21.6147 11.4958 17.5381 11.4958 17.4985L12.5491 17.4985C12.551 17.5342 12.5549 20.4604 12.5554 21.8877C12.5554 21.9653 12.5562 22.0449 12.5718 22.1211C12.6106 22.3125 12.7576 22.3945 12.9419 22.3271C13.1543 22.2495 13.3162 22.1035 13.4519 21.9277C13.4722 21.9028 13.4722 21.8574 13.4722 21.8213L13.4722 17.4917L14.5286 17.4893C14.5286 17.4893 14.5286 19.5327 14.5286 20.5024ZM18.5452 22.7417C18.4041 23.1665 18.0933 23.3823 17.6465 23.3779C17.2834 23.3745 16.989 23.2305 16.7461 22.9668C16.719 22.938 16.6438 22.8579 16.6438 22.8579L16.6438 23.2998L15.5862 23.2998L15.5862 15.4316L16.6438 15.4316C16.6438 16.269 16.6438 18.0215 16.6438 18.0215C16.6438 18.0215 16.7034 17.9023 16.7578 17.8408C16.9216 17.6577 17.1208 17.5161 17.3669 17.4536C17.7727 17.3521 18.2407 17.4775 18.4636 17.9521C18.595 18.2324 18.6318 18.5317 18.6318 18.8359C18.6338 19.9355 18.6338 21.0352 18.6326 22.1353C18.6318 22.3408 18.6104 22.5444 18.5452 22.7417ZM22.4517 22.5205C22.2683 23.0571 21.8896 23.3545 21.3342 23.436C20.99 23.4868 20.6489 23.4795 20.3259 23.3335C19.8838 23.1338 19.6333 22.7734 19.5256 22.3145C19.4758 22.1011 19.4514 21.877 19.4487 21.6572C19.4402 20.7959 19.4441 19.9336 19.446 19.0723C19.4468 18.6216 19.5542 18.2061 19.863 17.8608C20.2151 17.4668 20.6658 17.3198 21.1802 17.353C21.335 17.3623 21.4929 17.3877 21.6399 17.4365C22.1401 17.6006 22.4075 17.9756 22.5125 18.4727C22.5525 18.6641 22.5674 18.8628 22.5708 19.0591C22.5791 19.5186 22.5674 20.5317 22.5674 20.5317L20.542 20.5317L20.542 21.9839C20.542 22.2446 20.7532 22.4556 21.0139 22.4556C21.2742 22.4556 21.4851 22.2446 21.4851 21.9839L21.4851 21.2373L22.5732 21.2373C22.5732 21.2373 22.5894 22.1182 22.4517 22.5205ZM21.4851 18.8164C21.4851 18.5562 21.2742 18.3447 21.0139 18.3447C20.7529 18.3447 20.542 18.5562 20.542 18.8164L20.542 19.6313L21.4851 19.6313L21.4851 18.8164ZM17.4673 18.5566C17.4128 18.4214 17.2964 18.354 17.1501 18.3398C16.9785 18.3232 16.8413 18.3926 16.717 18.5024C16.6672 18.5459 16.6445 18.6104 16.6445 18.6104L16.6472 22.104C16.6472 22.104 16.677 22.2305 16.6814 22.2354C16.7825 22.3447 16.9001 22.4316 17.051 22.4624C17.2996 22.5137 17.4751 22.4102 17.5237 22.1797C17.5359 22.1221 17.543 22.0625 17.543 22.0039C17.5444 20.9634 17.5464 19.9238 17.541 18.8843C17.5405 18.7744 17.5081 18.6597 17.4673 18.5566Z" fill-rule="nonzero" fill="#C4E4FF"/>
	<path id="Path 325" d="M20.1711 6.14893L20.1707 11.9907L19.0884 11.9907L19.0896 11.3628C18.97 11.481 18.8679 11.5908 18.7556 11.6899C18.5566 11.8652 18.3313 11.9956 18.0676 12.0474C17.6628 12.1265 17.3181 11.9985 17.189 11.5796C17.146 11.4399 17.1199 11.2891 17.1189 11.1436L17.1189 6.14893L18.1931 6.14893L18.1931 10.604C18.1931 10.6626 18.198 10.7227 18.2083 10.7803C18.241 10.9639 18.3765 11.0503 18.5535 10.9893C18.7688 10.9146 18.9333 10.7651 19.0728 10.5894C19.0925 10.5645 19.0891 10.5176 19.0891 10.4805L19.0891 6.14893L20.1711 6.14893Z" fill-rule="nonzero" fill="#C4E4FF"/>
	<path id="Path 326" d="M11.218 7.16406C10.9832 6.17334 10.4907 4.08252 10.4907 4.08252L9.25903 4.08252C9.25903 4.08252 10.2053 7.22119 10.6287 8.62109C10.6438 8.67139 10.6509 8.72656 10.6509 8.7793L10.6504 11.9893L11.7861 11.9893L11.7856 8.7793C11.7856 8.72656 11.7927 8.67139 11.8079 8.62109C12.2312 7.22119 13.1775 4.08252 13.1775 4.08252L11.9458 4.08252C11.9458 4.08252 11.4529 6.17334 11.218 7.16406Z" fill-rule="nonzero" fill="#C4E4FF"/>
	<path id="Path 327" d="M14.6599 6.00244C13.804 6.00244 13.1101 6.69629 13.1101 7.55225L13.1101 10.5854C13.1101 11.4414 13.804 12.1357 14.6599 12.1357C15.5161 12.1357 16.21 11.4414 16.21 10.5854L16.21 7.55225C16.21 6.69629 15.5161 6.00244 14.6599 6.00244ZM15.1074 10.647C15.1074 10.8936 14.9067 11.0942 14.6602 11.0942C14.4136 11.0942 14.2129 10.8936 14.2129 10.647L14.2129 7.49121C14.2129 7.24463 14.4136 7.04395 14.6602 7.04395C14.9067 7.04395 15.1074 7.24463 15.1074 7.49121L15.1074 10.647Z" fill-rule="nonzero" fill="#C4E4FF"/>
</svg>
